<?xml version="1.0" standalone="no"?>
<!DOCTYPE svg PUBLIC "-//W3C//DTD SVG 20010904//EN" "http://www.w3.org/TR/2001/REC-SVG-20010904/DTD/svg10.dtd">
<svg version="1.0" xmlns="http://www.w3.org/2000/svg" width="512.000000pt" height="512.000000pt" viewBox="0 0 512.000000 512.000000" preserveAspectRatio="xMidYMid meet">

    <g transform="translate(0.000000,512.000000) scale(0.100000,-0.100000)" fill="#2db1b1" stroke="none">
        <path d="M1430 4724 c-211 -57 -331 -261 -360 -611 -14 -179 9 -455 56 -658 7
-33 10 -63 6 -67 -4 -4 -49 -21 -100 -38 -519 -174 -864 -443 -913 -715 -46
-252 156 -502 571 -710 117 -59 384 -165 414 -165 34 0 37 -25 16 -132 -65
-329 -66 -642 -3 -858 105 -363 372 -468 774 -306 179 72 409 222 598 390 l74
66 41 -35 c207 -177 357 -283 513 -363 434 -221 748 -155 872 185 50 136 65
236 65 438 0 183 -8 271 -46 473 -17 96 -18 116 -7 126 8 7 56 27 106 45 314
107 562 248 724 410 234 235 236 489 5 729 -156 162 -403 302 -742 421 -126
44 -118 24 -86 203 65 358 52 696 -33 899 -41 96 -100 174 -167 218 -87 59
-116 66 -263 66 -114 0 -141 -3 -215 -27 -209 -67 -453 -216 -690 -423 -41
-36 -80 -65 -86 -65 -6 0 -21 12 -35 26 -43 47 -222 186 -329 257 -294 194
-565 273 -760 221z m307 -229 c96 -33 206 -89 318 -162 97 -64 273 -203 316
-249 l27 -29 -107 -121 c-58 -66 -151 -179 -206 -249 l-101 -129 -154 -22
c-85 -12 -216 -34 -290 -50 -74 -15 -148 -28 -165 -28 -29 -1 -30 0 -47 79
-54 253 -63 575 -19 738 37 140 93 216 178 244 53 18 160 8 250 -22z m1921 14
c171 -83 226 -448 141 -929 -11 -63 -24 -119 -28 -123 -5 -4 -77 6 -162 23
-85 17 -226 41 -314 53 l-159 23 -94 119 c-51 66 -132 165 -180 219 -48 55
-100 115 -116 134 l-30 35 40 34 c277 242 510 382 709 426 58 13 150 6 193
-14z m-927 -798 c54 -63 96 -118 93 -123 -7 -11 -521 -10 -528 0 -6 10 69 104
182 230 l75 83 40 -38 c22 -21 84 -89 138 -152z m244 -359 c37 -7 45 -15 103
-102 95 -141 233 -377 314 -536 l72 -141 -28 -63 c-70 -156 -231 -440 -358
-630 l-63 -95 -55 -8 c-77 -11 -656 -14 -763 -4 l-89 9 -93 141 c-131 201
-329 554 -350 624 -11 37 139 325 317 608 132 211 111 194 253 205 132 10 676
4 740 -8z m-1219 -145 c-35 -56 -96 -162 -136 -235 -40 -73 -76 -130 -81 -125
-11 11 -81 197 -112 301 l-26 83 24 9 c43 16 375 79 387 73 4 -2 -21 -50 -56
-106z m1872 50 c35 -8 68 -19 74 -25 8 -8 3 -37 -17 -99 -33 -109 -94 -275
-105 -286 -4 -5 -31 36 -60 90 -29 54 -90 160 -135 235 -46 75 -81 139 -79
141 5 5 226 -34 322 -56z m-2386 -232 c40 -121 110 -306 161 -425 15 -35 14
-38 -35 -155 -27 -66 -76 -198 -108 -294 -33 -96 -64 -179 -69 -184 -29 -29
-461 164 -614 274 -214 153 -291 294 -227 420 51 100 211 236 390 332 142 76
438 194 451 179 3 -4 26 -70 51 -147z m2933 66 c107 -43 272 -131 360 -192 88
-61 204 -179 235 -239 51 -98 22 -191 -97 -310 -95 -95 -212 -172 -386 -255
-153 -73 -344 -142 -356 -129 -4 5 -33 83 -64 174 -31 91 -81 225 -111 299
-42 102 -53 138 -46 152 25 46 132 327 169 442 22 71 43 132 46 137 6 9 115
-26 250 -79z m-2560 -923 c38 -68 97 -170 132 -227 40 -65 61 -107 55 -113
-17 -17 -380 55 -389 78 -8 20 116 384 131 384 2 0 34 -55 71 -122z m1979 95
c28 -55 126 -357 119 -364 -5 -5 -76 -21 -158 -38 -204 -40 -232 -44 -239 -33
-3 6 23 56 57 113 35 57 88 149 117 204 60 113 78 145 85 145 2 0 11 -12 19
-27z m-1869 -647 c88 -14 183 -28 211 -31 51 -6 52 -7 125 -103 97 -127 205
-257 284 -340 l64 -68 -82 -70 c-341 -294 -651 -442 -825 -394 -200 54 -273
435 -181 940 12 63 25 120 30 126 6 7 39 4 111 -13 57 -12 175 -34 263 -47z
m2062 13 c7 -30 22 -119 34 -199 18 -121 21 -174 16 -325 -5 -184 -21 -274
-63 -359 -20 -40 -81 -103 -116 -122 -36 -19 -154 -18 -232 2 -171 43 -427
202 -664 411 l-44 38 78 85 c79 87 242 287 303 372 30 42 39 48 80 53 217 28
557 89 570 101 13 13 27 -9 38 -57z m-952 -82 c0 -5 -154 -189 -223 -266 l-48
-53 -63 67 c-92 99 -212 245 -207 253 5 8 541 7 541 -1z" />
        <path d="M2460 3007 c-205 -46 -350 -227 -350 -436 0 -184 93 -332 259 -414
64 -31 70 -32 191 -32 122 0 127 1 195 34 82 40 171 124 204 194 147 306 -41
641 -372 662 -40 3 -97 -1 -127 -8z" />
    </g>
</svg>
