<?xml version="1.0" standalone="no"?>
<!DOCTYPE svg PUBLIC "-//W3C//DTD SVG 20010904//EN" "http://www.w3.org/TR/2001/REC-SVG-20010904/DTD/svg10.dtd">
<svg version="1.0" xmlns="http://www.w3.org/2000/svg" width="498.000000pt" height="348.000000pt" viewBox="0 0 498.000000 348.000000" preserveAspectRatio="xMidYMid meet">

    <g transform="translate(0.000000,348.000000) scale(0.100000,-0.100000)" fill="#000000" stroke="none">
        <path d="M0 1740 l0 -1740 2490 0 2490 0 0 1740 0 1740 -2490 0 -2490 0 0
-1740z m4728 1639 c78 -39 112 -73 151 -151 l31 -61 0 -1427 0 -1427 -31 -61
c-39 -78 -73 -112 -151 -151 l-61 -31 -2177 0 -2177 0 -61 31 c-78 39 -112 73
-151 151 l-31 61 0 1427 0 1427 31 61 c39 78 73 112 151 151 l61 31 2177 0
2177 0 61 -31z" />
        <path d="M397 3210 c-48 -9 -86 -37 -112 -81 -20 -34 -20 -52 -20 -1389 0
-1337 0 -1355 20 -1389 27 -46 64 -72 116 -82 57 -11 4121 -11 4178 0 52 10
89 36 116 82 20 34 20 52 20 1389 0 1337 0 1355 -20 1389 -27 46 -64 72 -116
82 -54 10 -4129 10 -4182 -1z m1435 -129 c119 -81 178 -138 178 -172 0 -19 -9
-38 -24 -52 -19 -19 -183 -150 -400 -323 -75 -59 -74 -83 4 -158 58 -56 71
-84 52 -113 -12 -19 -195 -162 -229 -178 -61 -29 -71 -24 -283 145 -72 58
-148 119 -169 135 -42 33 -71 73 -71 99 0 22 75 95 170 165 41 31 105 81 141
111 36 30 121 98 189 150 68 52 156 122 195 154 73 61 115 85 152 86 12 0 54
-22 95 -49z m273 -678 c68 -45 173 -132 189 -155 38 -53 15 -77 -264 -285 -25
-19 -80 -66 -122 -104 -93 -84 -99 -105 -40 -160 20 -20 55 -49 77 -65 22 -16
67 -51 100 -79 33 -28 99 -81 146 -117 95 -73 124 -109 115 -141 -11 -46 -230
-207 -279 -207 -32 0 -142 73 -243 162 -34 29 -90 74 -125 101 -35 26 -111 85
-169 132 -58 46 -146 116 -196 155 -95 73 -127 117 -107 149 5 9 45 44 89 79
43 34 101 81 128 105 81 69 467 371 544 425 59 40 102 42 157 5z m735 -4 c19
-12 66 -47 105 -79 38 -31 93 -74 121 -96 77 -59 431 -336 499 -391 34 -28 61
-58 63 -71 4 -27 -46 -81 -155 -164 -70 -55 -218 -172 -501 -400 -150 -121
-195 -138 -262 -97 -45 28 -114 82 -167 133 -73 69 -64 89 92 209 247 190 345
278 345 310 0 32 -11 45 -79 96 -33 25 -99 78 -147 116 -47 39 -123 99 -168
136 -65 52 -82 71 -84 95 -3 36 -3 36 88 110 150 122 182 134 250 93z m645
-978 c17 -10 68 -48 115 -85 47 -37 136 -106 198 -154 113 -87 134 -114 116
-152 -5 -10 -76 -72 -159 -136 -82 -65 -197 -157 -255 -204 -58 -48 -141 -113
-185 -145 -44 -32 -99 -75 -121 -96 -51 -46 -94 -69 -130 -69 -26 0 -180 106
-251 173 -63 59 -60 63 213 274 238 185 247 193 247 228 0 23 -13 40 -56 80
-87 78 -84 92 46 198 56 46 111 89 122 95 30 17 66 14 100 -7z" />
    </g>
</svg>
